<svg width="1592" height="1023" viewBox="0 0 1592 1023" fill="none" xmlns="http://www.w3.org/2000/svg">
<g opacity="0.05">
<path fill-rule="evenodd" clip-rule="evenodd" d="M1.07564 40.6629H72.3147V0H73.3903V40.6629H144.629V0H145.705V40.6629H216.944V0H218.02V40.6629H289.259V0H290.334V40.6629H361.573V0H362.649V40.6629H433.888V0H434.964V40.6629H506.203V0H507.279V40.6629H578.518V0H579.593V40.6629H650.832V0H651.908V40.6629H723.148V0H724.224V40.6629H795.463V0H796.538V40.6629H867.776V0H868.852V40.6629H940.092V0H941.168V40.6629H1012.41V0H1013.48V40.6629H1084.72V0H1085.8V40.6629H1157.04V0H1158.11V40.6629H1229.35V0H1230.43V40.6629H1301.67V0H1302.74V40.6629H1373.98V0H1375.06V40.6629H1446.3V0H1447.37V40.6629H1518.61V0H1519.69V40.6629H1589.45V41.7391H1519.69V113.016H1589.45V114.093H1519.69V185.37H1589.45V186.446H1519.69V257.724H1589.45V258.8H1519.69V330.078H1589.45V331.154H1519.69V402.432H1589.45V403.508H1519.69V474.785H1589.45V475.861H1519.69V547.139H1589.45V548.215H1519.69V619.492H1589.45V620.568H1519.69V691.846H1589.45V692.922H1519.69V764.199L1589.45 764.2V765.276L1519.69 765.275V836.553L1589.45 836.554V837.63L1519.69 837.629V908.907H1589.45V909.984H1519.69V981.261H1589.45V982.337H1519.69V1023H1518.61V982.337H1447.37V1023H1446.3V982.337H1375.06V1023H1373.98V982.337H1302.74V1023H1301.67V982.337H1230.43V1023H1229.35V982.337H1158.11V1023H1157.04V982.337H1085.8V1023H1084.72V982.337H1013.48V1023H1012.41V982.337H941.168V1023H940.092V982.337H868.852V1023H867.776V982.337H796.538V1023H795.463V982.337H724.224V1023H723.148V982.337H651.908V1023H650.832V982.337H579.593V1023H578.518V982.337H507.279V1023H506.203V982.337H434.964V1023H433.888V982.337H362.649V1023H361.573V982.337H290.334V1023H289.259V982.337H218.02V1023H216.944V982.337H145.705V1023H144.629V982.337H73.3903V1023H72.3147V982.337H1.07564V1023H0V0H1.07564V40.6629ZM1.07564 981.261H72.3147V909.984H1.07564V981.261ZM73.3903 981.261H144.629V909.984H73.3903V981.261ZM145.705 981.261H216.944V909.984H145.705V981.261ZM218.02 981.261H289.259V909.984H218.02V981.261ZM290.334 981.261H361.573V909.984H290.334V981.261ZM362.649 981.261H433.888V909.984H362.649V981.261ZM434.964 981.261H506.203V909.984H434.964V981.261ZM507.279 981.261H578.518V909.984H507.279V981.261ZM579.593 981.261H650.832V909.984H579.593V981.261ZM651.908 981.261H723.148V909.984H651.908V981.261ZM724.224 981.261H795.463V909.984H724.224V981.261ZM796.538 981.261H867.776V909.984H796.538V981.261ZM868.852 981.261H940.092V909.984H868.852V981.261ZM941.168 981.261H1012.41V909.984H941.168V981.261ZM1013.48 981.261H1084.72L1084.72 909.984H1013.48V981.261ZM1085.8 981.261H1157.04V909.984H1085.8L1085.8 981.261ZM1158.11 981.261H1229.35V909.984H1158.11V981.261ZM1230.43 981.261H1301.67V909.984H1230.43V981.261ZM1302.74 981.261H1373.98V909.984H1302.74V981.261ZM1375.06 981.261H1446.3V909.984H1375.06V981.261ZM1447.37 981.261H1518.61V909.984H1447.37V981.261ZM1.07564 908.907H72.3147V837.629H1.07564V908.907ZM73.3903 908.907H144.629V837.629H73.3903V908.907ZM145.705 908.907H216.944V837.629H145.705V908.907ZM218.02 908.907H289.259V837.629H218.02V908.907ZM290.334 908.907H361.573V837.629H290.334V908.907ZM362.649 908.907H433.888V837.629H362.649V908.907ZM434.964 908.907H506.203V837.629H434.964V908.907ZM507.279 908.907H578.518V837.629H507.279V908.907ZM579.593 908.907H650.832V837.629H579.593V908.907ZM651.908 908.907H723.148V837.629H651.908V908.907ZM724.224 908.907H795.463V837.629H724.224V908.907ZM796.538 908.907H867.776V837.629H796.538V908.907ZM868.852 908.907H940.092V837.629H868.852V908.907ZM941.168 908.907H1012.41V837.629H941.168V908.907ZM1013.48 908.907H1084.72V837.629H1013.48V908.907ZM1085.8 908.907H1157.04V837.629H1085.8V908.907ZM1158.11 908.907H1229.35V837.629H1158.11V908.907ZM1230.43 908.907H1301.67V837.629H1230.43V908.907ZM1302.74 908.907H1373.98V837.629H1302.74V908.907ZM1375.06 908.907H1446.3V837.629H1375.06V908.907ZM1447.37 908.907H1518.61V837.629H1447.37V908.907ZM1.07564 836.553H72.3147V765.275H1.07564V836.553ZM73.3903 836.553H144.629V765.275H73.3903V836.553ZM145.705 836.553H216.944V765.275H145.705V836.553ZM218.02 836.553H289.259V765.275H218.02V836.553ZM290.334 836.553H361.573V765.275H290.334V836.553ZM362.649 836.553H433.888V765.275H362.649V836.553ZM434.964 836.553H506.203V765.275H434.964V836.553ZM507.279 836.553H578.518V765.275H507.279V836.553ZM579.593 836.553H650.832V765.275H579.593V836.553ZM651.908 836.553H723.148V765.275H651.908V836.553ZM724.224 836.553H795.463V765.275H724.224V836.553ZM796.538 836.553H867.776V765.275H796.538V836.553ZM868.852 836.553H940.092V765.275H868.852V836.553ZM941.168 836.553H1012.41V765.275H941.168V836.553ZM1013.48 836.553H1084.72L1084.72 765.275H1013.48V836.553ZM1085.8 836.553H1157.04V765.275H1085.8L1085.8 836.553ZM1158.11 836.553H1229.35V765.275H1158.11V836.553ZM1230.43 836.553H1301.67V765.275H1230.43V836.553ZM1302.74 836.553H1373.98V765.275H1302.74V836.553ZM1375.06 836.553H1446.3V765.275H1375.06V836.553ZM1447.37 836.553H1518.61V765.275H1447.37V836.553ZM1.07564 764.199H72.3147V692.922H1.07564V764.199ZM73.3903 764.199H144.629V692.922H73.3903V764.199ZM145.705 764.199H216.944V692.922H145.705V764.199ZM218.02 764.199H289.259V692.922H218.02V764.199ZM290.334 764.199H361.573V692.922H290.334V764.199ZM362.649 764.199H433.888V692.922H362.649V764.199ZM434.964 764.199H506.203V692.922H434.964V764.199ZM507.279 764.199H578.518V692.922H507.279V764.199ZM579.593 764.199H650.832V692.922H579.593V764.199ZM651.908 764.199H723.148V692.922H651.908V764.199ZM724.224 764.199H795.463V692.922H724.224V764.199ZM796.538 764.199H867.776V692.922H796.538V764.199ZM868.852 764.199H940.092V692.922H868.852V764.199ZM941.168 764.199H1012.41V692.922H941.168V764.199ZM1013.48 764.199H1084.72V692.922H1013.48V764.199ZM1085.8 764.199H1157.04V692.922H1085.8V764.199ZM1158.11 764.199H1229.35V692.922H1158.11V764.199ZM1230.43 764.199H1301.67V692.922H1230.43V764.199ZM1302.74 764.199H1373.98V692.922H1302.74V764.199ZM1375.06 764.199H1446.3V692.922H1375.06V764.199ZM1447.37 764.199H1518.61V692.922H1447.37V764.199ZM1.07564 691.846H72.3147V620.568H1.07564V691.846ZM73.3903 691.846H144.629V620.568H73.3903V691.846ZM145.705 691.846H216.944V620.568H145.705V691.846ZM218.02 691.846H289.259V620.568H218.02V691.846ZM290.334 691.846H361.573V620.568H290.334V691.846ZM362.649 691.846H433.888V620.568H362.649V691.846ZM434.964 691.846H506.203V620.568H434.964V691.846ZM507.279 691.846H578.518V620.568H507.279V691.846ZM579.593 691.846H650.832V620.568H579.593V691.846ZM651.908 691.846H723.148V620.568H651.908V691.846ZM724.224 691.846H795.463V620.568H724.224V691.846ZM796.538 691.846H867.776V620.568H796.538V691.846ZM868.852 691.846H940.092V620.568H868.852V691.846ZM941.168 691.846H1012.41V620.568H941.168V691.846ZM1013.48 691.846H1084.72V620.568H1013.48V691.846ZM1085.8 691.846H1157.04V620.568H1085.8V691.846ZM1158.11 691.846H1229.35V620.568H1158.11V691.846ZM1230.43 691.846H1301.67V620.568H1230.43V691.846ZM1302.74 691.846H1373.98V620.568H1302.74V691.846ZM1375.06 691.846H1446.3V620.568H1375.06V691.846ZM1447.37 691.846H1518.61V620.568H1447.37V691.846ZM1.07564 619.492H72.3147V548.215H1.07564V619.492ZM73.3903 619.492H144.629V548.215H73.3903V619.492ZM145.705 619.492H216.944V548.215H145.705V619.492ZM218.02 619.492H289.259V548.215H218.02V619.492ZM290.334 619.492H361.573V548.215H290.334V619.492ZM362.649 619.492H433.888V548.215H362.649V619.492ZM434.964 619.492H506.203V548.215H434.964V619.492ZM507.279 619.492H578.518V548.215H507.279V619.492ZM579.593 619.492H650.832V548.215H579.593V619.492ZM651.908 619.492H723.148V548.215H651.908V619.492ZM724.224 619.492H795.463V548.215H724.224V619.492ZM796.538 619.492H867.776V548.215H796.538V619.492ZM868.852 619.492H940.092V548.215H868.852V619.492ZM941.168 619.492H1012.41V548.215H941.168V619.492ZM1013.48 619.492H1084.72V548.215H1013.48V619.492ZM1085.8 619.492H1157.04V548.215H1085.8V619.492ZM1158.11 619.492H1229.35V548.215H1158.11V619.492ZM1230.43 619.492H1301.67V548.215H1230.43V619.492ZM1302.74 619.492H1373.98V548.215H1302.74V619.492ZM1375.06 619.492H1446.3V548.215H1375.06V619.492ZM1447.37 619.492H1518.61V548.215H1447.37V619.492ZM1.07564 547.139H72.3147V475.861H1.07564V547.139ZM73.3903 547.139H144.629V475.861H73.3903V547.139ZM145.705 547.139H216.944V475.861H145.705V547.139ZM218.02 547.139H289.259V475.861H218.02V547.139ZM290.334 547.139H361.573V475.861H290.334V547.139ZM362.649 547.139H433.888V475.861H362.649V547.139ZM434.964 547.139H506.203V475.861H434.964V547.139ZM507.279 547.139H578.518V475.861H507.279V547.139ZM579.593 547.139H650.832V475.861H579.593V547.139ZM651.908 547.139H723.148V475.861H651.908V547.139ZM724.224 547.139H795.463V475.861H724.224V547.139ZM796.538 547.139H867.776V475.861H796.538V547.139ZM868.852 547.139H940.092V475.861H868.852V547.139ZM941.168 547.139H1012.41V475.861H941.168V547.139ZM1013.48 547.139H1084.72V475.861H1013.48V547.139ZM1085.8 547.139H1157.04V475.861H1085.8V547.139ZM1158.11 547.139H1229.35V475.861H1158.11V547.139ZM1230.43 547.139H1301.67V475.861H1230.43V547.139ZM1302.74 547.139H1373.98V475.861H1302.74V547.139ZM1375.06 547.139H1446.3V475.861H1375.06V547.139ZM1447.37 547.139H1518.61V475.861H1447.37V547.139ZM1.07564 474.785H72.3147V403.508H1.07564V474.785ZM73.3903 474.785H144.629V403.508H73.3903V474.785ZM145.705 474.785H216.944V403.508H145.705V474.785ZM218.02 474.785H289.259V403.508H218.02V474.785ZM290.334 474.785H361.573V403.508H290.334V474.785ZM362.649 474.785H433.888V403.508H362.649V474.785ZM434.964 474.785H506.203V403.508H434.964V474.785ZM507.279 474.785H578.518V403.508H507.279V474.785ZM579.593 474.785H650.832V403.508H579.593V474.785ZM651.908 474.785H723.148V403.508H651.908V474.785ZM724.224 474.785H795.463V403.508H724.224V474.785ZM796.538 474.785H867.776V403.508H796.538V474.785ZM868.852 474.785H940.092V403.508H868.852V474.785ZM941.168 474.785H1012.41V403.508H941.168V474.785ZM1013.48 474.785H1084.72V403.508H1013.48V474.785ZM1085.8 474.785H1157.04V403.508H1085.8V474.785ZM1158.11 474.785H1229.35V403.508H1158.11V474.785ZM1230.43 474.785H1301.67V403.508H1230.43V474.785ZM1302.74 474.785H1373.98V403.508H1302.74V474.785ZM1375.06 474.785H1446.3V403.508H1375.06V474.785ZM1447.37 474.785H1518.61V403.508H1447.37V474.785ZM1.07564 402.432H72.3147V331.154H1.07564V402.432ZM73.3903 402.432H144.629V331.154H73.3903V402.432ZM145.705 402.432H216.944V331.154H145.705V402.432ZM218.02 402.432H289.259V331.154H218.02V402.432ZM290.334 402.432H361.573V331.154H290.334V402.432ZM362.649 402.432H433.888V331.154H362.649V402.432ZM434.964 402.432H506.203V331.154H434.964V402.432ZM507.279 402.432H578.518V331.154H507.279V402.432ZM579.593 402.432H650.832V331.154H579.593V402.432ZM651.908 402.432H723.148V331.154H651.908V402.432ZM724.224 402.432H795.463V331.154H724.224V402.432ZM796.538 402.432H867.776V331.154H796.538V402.432ZM868.852 402.432H940.092V331.154H868.852V402.432ZM941.168 402.432H1012.41V331.154H941.168V402.432ZM1013.48 402.432H1084.72V331.154H1013.48V402.432ZM1085.8 402.432H1157.04V331.154H1085.8V402.432ZM1158.11 402.432H1229.35V331.154H1158.11V402.432ZM1230.43 402.432H1301.67V331.154H1230.43V402.432ZM1302.74 402.432H1373.98V331.154H1302.74V402.432ZM1375.06 402.432H1446.3V331.154H1375.06V402.432ZM1447.37 402.432H1518.61V331.154H1447.37V402.432ZM1.07564 330.078H72.3147V258.8H1.07564V330.078ZM73.3903 330.078H144.629V258.8H73.3903V330.078ZM145.705 330.078H216.944V258.8H145.705V330.078ZM218.02 330.078H289.259V258.8H218.02V330.078ZM290.334 330.078H361.573V258.8H290.334V330.078ZM362.649 330.078H433.888V258.8H362.649V330.078ZM434.964 330.078H506.203V258.8H434.964V330.078ZM507.279 330.078H578.518V258.8H507.279V330.078ZM579.593 330.078H650.832V258.8H579.593V330.078ZM651.908 330.078H723.148V258.8H651.908V330.078ZM724.224 330.078H795.463V258.8H724.224V330.078ZM796.538 330.078H867.776V258.8H796.538V330.078ZM868.852 330.078H940.092V258.8H868.852V330.078ZM941.168 330.078H1012.41V258.8H941.168V330.078ZM1013.48 330.078H1084.72V258.8H1013.48V330.078ZM1085.8 330.078H1157.04V258.8H1085.8V330.078ZM1158.11 330.078H1229.35V258.8H1158.11V330.078ZM1230.43 330.078H1301.67V258.8H1230.43V330.078ZM1302.74 330.078H1373.98V258.8H1302.74V330.078ZM1375.06 330.078H1446.3V258.8H1375.06V330.078ZM1447.37 330.078H1518.61V258.8H1447.37V330.078ZM1.07564 257.724H72.3147V186.446H1.07564V257.724ZM73.3903 257.724H144.629V186.446H73.3903V257.724ZM145.705 257.724H216.944V186.446H145.705V257.724ZM218.02 257.724H289.259V186.446H218.02V257.724ZM290.334 257.724H361.573V186.446H290.334V257.724ZM362.649 257.724H433.888V186.446H362.649V257.724ZM434.964 257.724H506.203V186.446H434.964V257.724ZM507.279 257.724H578.518V186.446H507.279V257.724ZM579.593 257.724H650.832V186.446H579.593V257.724ZM651.908 257.724H723.148V186.446H651.908V257.724ZM724.224 257.724H795.463V186.446H724.224V257.724ZM796.538 257.724H867.776V186.446H796.538V257.724ZM868.852 257.724H940.092V186.446H868.852V257.724ZM941.168 257.724H1012.41V186.446H941.168V257.724ZM1013.48 257.724H1084.72V186.446H1013.48V257.724ZM1085.8 257.724H1157.04V186.446H1085.8V257.724ZM1158.11 257.724H1229.35V186.446H1158.11V257.724ZM1230.43 257.724H1301.67V186.446H1230.43V257.724ZM1302.74 257.724H1373.98V186.446H1302.74V257.724ZM1375.06 257.724H1446.3V186.446H1375.06V257.724ZM1447.37 257.724H1518.61V186.446H1447.37V257.724ZM1.07564 185.37H72.3147V114.093H1.07564V185.37ZM73.3903 185.37H144.629V114.093H73.3903V185.37ZM145.705 185.37H216.944V114.093H145.705V185.37ZM218.02 185.37H289.259V114.093H218.02V185.37ZM290.334 185.37H361.573V114.093H290.334V185.37ZM362.649 185.37H433.888V114.093H362.649V185.37ZM434.964 185.37H506.203V114.093H434.964V185.37ZM507.279 185.37H578.518V114.093H507.279V185.37ZM579.593 185.37H650.832V114.093H579.593V185.37ZM651.908 185.37H723.148V114.093H651.908V185.37ZM724.224 185.37H795.463V114.093H724.224V185.37ZM796.538 185.37H867.776V114.093H796.538V185.37ZM868.852 185.37H940.092V114.093H868.852V185.37ZM941.168 185.37H1012.41V114.093H941.168V185.37ZM1013.48 185.37H1084.72V114.093H1013.48V185.37ZM1085.8 185.37H1157.04V114.093H1085.8V185.37ZM1158.11 185.37H1229.35V114.093H1158.11V185.37ZM1230.43 185.37H1301.67V114.093H1230.43V185.37ZM1302.74 185.37H1373.98V114.093H1302.74V185.37ZM1375.06 185.37H1446.3V114.093H1375.06V185.37ZM1447.37 185.37H1518.61V114.093H1447.37V185.37ZM1.07564 113.016H72.3147V41.7391H1.07564V113.016ZM73.3903 113.016H144.629V41.7391H73.3903V113.016ZM145.705 113.016H216.944V41.7391H145.705V113.016ZM218.02 113.016H289.259V41.7391H218.02V113.016ZM290.334 113.016H361.573V41.7391H290.334V113.016ZM362.649 113.016H433.888V41.7391H362.649V113.016ZM434.964 113.016H506.203V41.7391H434.964V113.016ZM507.279 113.016H578.518V41.7391H507.279V113.016ZM579.593 113.016H650.832V41.7391H579.593V113.016ZM651.908 113.016H723.148V41.7391H651.908V113.016ZM724.224 113.016H795.463V41.7391H724.224V113.016ZM796.538 113.016H867.776V41.7391H796.538V113.016ZM868.852 113.016H940.092V41.7391H868.852V113.016ZM941.168 113.016H1012.41V41.7391H941.168V113.016ZM1013.48 113.016H1084.72V41.7391H1013.48V113.016ZM1085.8 113.016H1157.04V41.7391H1085.8V113.016ZM1158.11 113.016H1229.35V41.7391H1158.11V113.016ZM1230.43 113.016H1301.67V41.7391H1230.43V113.016ZM1302.74 113.016H1373.98V41.7391H1302.74V113.016ZM1375.06 113.016H1446.3V41.7391H1375.06V113.016ZM1447.37 113.016H1518.61V41.7391H1447.37V113.016Z" fill="url(#paint0_radial_3284_4615)"/>
<path d="M1592 1023H1590.92V0H1592V1023Z" fill="url(#paint1_radial_3284_4615)"/>
</g>
<path d="M636.695 632.563L1067.52 630.888L1067.66 630.888L1160.48 577.344L1160.55 577.229L1377.82 205.192L1377 204.622L1086.85 556.922L636.611 631.57L636.695 632.563ZM1087.2 557.878L1087.38 557.847L1087.5 557.702L1373.82 210.06L1159.75 576.61L1067.39 629.889L642.907 631.539L1087.2 557.878Z" fill="#4A4A4A"/>
<path d="M636.64 632.561L998.044 670.919L998.205 670.936L1069.4 629.881L636.69 631.564L636.64 632.561ZM1065.64 630.894L997.988 669.907L645.807 632.528L1065.64 630.894Z" fill="#4A4A4A"/>
<path d="M1158.74 578.35L1229.93 537.296L1377.84 205.142L1376.96 204.687L1158.74 578.35ZM1229.15 536.591L1161.5 575.603L1373.22 213.062L1229.15 536.591Z" fill="#4A4A4A"/>
<path d="M1067.16 630.021L1067.09 630.136L849.807 1002.16L850.626 1002.73L1140.79 650.443L1591.03 575.796L1590.94 574.802L1160.12 576.477L1159.98 576.478L1067.16 630.021ZM1160.25 577.476L1584.73 575.826L1140.44 649.488L1140.26 649.518L1140.14 649.663L853.808 997.289L1067.89 630.755L1160.25 577.476Z" fill="#4A4A4A"/>
<path d="M997.705 670.07L849.783 1002.2L850.671 1002.66L1068.9 629.016L997.705 670.07ZM1066.14 631.762L854.404 994.284L998.486 670.774L1066.14 631.762Z" fill="#4A4A4A"/>
<path d="M1590.95 575.802L1591 574.806L1229.59 536.448L1229.43 536.43L1158.24 577.485L1590.95 575.802ZM1229.65 537.458L1581.84 574.838L1162 576.47L1229.65 537.458Z" fill="#4A4A4A"/>
<defs>
<radialGradient id="paint0_radial_3284_4615" cx="0" cy="0" r="1" gradientUnits="userSpaceOnUse" gradientTransform="translate(568.406 380.862) rotate(30.0122) scale(1096.25 1707.26)">
<stop stop-color="#9DF09C" stop-opacity="0.3"/>
<stop offset="1" stop-color="#FAFAFA"/>
</radialGradient>
<radialGradient id="paint1_radial_3284_4615" cx="0" cy="0" r="1" gradientUnits="userSpaceOnUse" gradientTransform="translate(568.406 380.862) rotate(30.0122) scale(1096.25 1707.26)">
<stop stop-color="#9DF09C" stop-opacity="0.3"/>
<stop offset="1" stop-color="#FAFAFA"/>
</radialGradient>
</defs>
</svg>
